<svg id="visual" viewBox="0 0 900 450" width="900" height="450" xmlns="http://www.w3.org/2000/svg" xmlns:xlink="http://www.w3.org/1999/xlink" version="1.1"><rect x="0" y="0" width="900" height="450" fill="#f8f9fd"></rect><defs><linearGradient id="grad1_0" x1="50%" y1="0%" x2="100%" y2="100%"><stop offset="10%" stop-color="#f8f9fd" stop-opacity="1"></stop><stop offset="90%" stop-color="#f8f9fd" stop-opacity="1"></stop></linearGradient></defs><defs><linearGradient id="grad2_0" x1="0%" y1="0%" x2="50%" y2="100%"><stop offset="10%" stop-color="#f8f9fd" stop-opacity="1"></stop><stop offset="90%" stop-color="#f8f9fd" stop-opacity="1"></stop></linearGradient></defs><g transform="translate(900, 0)"><path d="M0 270C-45.5 260.4 -91 250.8 -132.5 229.5C-174 208.2 -211.6 175.2 -233.8 135C-256.1 94.8 -263 47.4 -270 0L0 0Z" fill="#d4c7f9"></path></g><g transform="translate(0, 450)"><path d="M0 -270C49.9 -264.5 99.9 -259 135 -233.8C170.1 -208.6 190.4 -163.8 210.4 -121.5C230.5 -79.2 250.2 -39.6 270 0L0 0Z" fill="#d4c7f9"></path></g></svg>