<svg id="visual" viewBox="0 0 900 450" width="900" height="450" xmlns="http://www.w3.org/2000/svg" xmlns:xlink="http://www.w3.org/1999/xlink" version="1.1"><rect x="0" y="0" width="900" height="450" fill="#f8f9fd"></rect><defs><linearGradient id="grad1_0" x1="50%" y1="100%" x2="100%" y2="0%"><stop offset="10%" stop-color="#f8f9fd" stop-opacity="1"></stop><stop offset="90%" stop-color="#f8f9fd" stop-opacity="1"></stop></linearGradient></defs><defs><linearGradient id="grad2_0" x1="0%" y1="100%" x2="50%" y2="0%"><stop offset="10%" stop-color="#f8f9fd" stop-opacity="1"></stop><stop offset="90%" stop-color="#f8f9fd" stop-opacity="1"></stop></linearGradient></defs><g transform="translate(900, 450)"><path d="M-270 0C-260.4 -45.5 -250.8 -91 -229.5 -132.5C-208.2 -174 -175.2 -211.6 -135 -233.8C-94.8 -256.1 -47.4 -263 0 -270L0 0Z" fill="#d4c7f9"></path></g><g transform="translate(0, 0)"><path d="M270 0C264.5 49.9 259 99.9 233.8 135C208.6 170.1 163.8 190.4 121.5 210.4C79.2 230.5 39.6 250.2 0 270L0 0Z" fill="#d4c7f9"></path></g></svg>